<?xml version="1.0" encoding="UTF-8"?>
<!DOCTYPE svg PUBLIC "-//W3C//DTD SVG 1.1//EN" "http://www.w3.org/Graphics/SVG/1.1/DTD/svg11.dtd">
<svg xmlns="http://www.w3.org/2000/svg" version="1.1" width="938px" height="934px" style="shape-rendering:geometricPrecision; text-rendering:geometricPrecision; image-rendering:optimizeQuality; fill-rule:evenodd; clip-rule:evenodd" xmlns:xlink="http://www.w3.org/1999/xlink">
<g><path style="opacity:0.995" fill="#fefffe" d="M 144.5,222.5 C 155.044,221.719 164.71,224.219 173.5,230C 181.698,237.863 189.531,246.03 197,254.5C 199.428,259.025 201.595,263.691 203.5,268.5C 227.37,253.399 252.703,241.233 279.5,232C 294.848,227.382 310.181,227.382 325.5,232C 339.248,242.411 350.081,255.244 358,270.5C 360.477,279.112 360.811,287.778 359,296.5C 353.746,305.339 348.746,314.339 344,323.5C 333.5,332.667 323.667,342.5 314.5,353C 300.887,362.28 287.554,371.946 274.5,382C 248.943,393.606 224.943,407.606 202.5,424C 240.054,430.387 262.72,452.22 270.5,489.5C 266.059,500.05 261.892,510.717 258,521.5C 231.621,554.78 197.787,576.613 156.5,587C 148.167,587.667 139.833,587.667 131.5,587C 121.954,576.952 111.954,567.452 101.5,558.5C 90.0414,570.459 78.3748,582.292 66.5,594C 37.3183,609.718 16.1517,602.552 3,572.5C 1.58173,554.293 2.91506,536.293 7,518.5C 33.8015,447.431 73.8015,385.098 127,331.5C 130.879,310.985 135.545,290.652 141,270.5C 143.351,254.587 144.518,238.587 144.5,222.5 Z M 179.5,376.5 C 182.216,363.517 186.049,350.85 191,338.5C 194.167,334 198,330.167 202.5,327C 225.965,309.098 250.299,292.431 275.5,277C 289.409,273.208 302.743,268.041 315.5,261.5C 317.247,263.044 318.247,265.044 318.5,267.5C 317.825,270.691 316.658,273.691 315,276.5C 307.742,281.756 301.909,288.256 297.5,296C 259.323,324.584 219.989,351.417 179.5,376.5 Z M 150.5,452.5 C 154.535,457.367 159.535,460.867 165.5,463C 185.415,467.319 205.415,470.985 225.5,474C 222.732,480.37 219.565,486.537 216,492.5C 204.979,503.527 192.812,513.027 179.5,521C 158.122,527.761 136.455,533.095 114.5,537C 126.366,508.769 138.366,480.603 150.5,452.5 Z M 74.5,471.5 C 75.3419,475.837 74.1752,479.837 71,483.5C 70.6846,479.114 71.8513,475.114 74.5,471.5 Z M 67.5,485.5 C 68.0431,485.56 68.3764,485.893 68.5,486.5C 63.6414,497.575 59.4748,508.909 56,520.5C 54.056,524.11 51.7226,527.443 49,530.5C 52.0414,516.042 56.7081,502.042 63,488.5C 64.4087,487.219 65.9087,486.219 67.5,485.5 Z"/></g>
<g><path style="opacity:0.994" fill="#fefffe" d="M 853.5,242.5 C 868.34,241.17 880.173,246.503 889,258.5C 892.938,263.376 896.105,268.709 898.5,274.5C 894.072,282.954 891.572,291.954 891,301.5C 860.52,361.157 821.02,414.157 772.5,460.5C 763.14,485.324 758.974,510.991 760,537.5C 778.739,524.097 796.906,509.93 814.5,495C 823.984,473.385 832.984,451.552 841.5,429.5C 847.039,428.571 852.372,429.405 857.5,432C 864.627,437.459 871.461,443.292 878,449.5C 880.554,463.414 879.554,477.08 875,490.5C 870.713,503.528 865.546,516.195 859.5,528.5C 861.074,529.631 862.741,529.798 864.5,529C 868.779,527.527 872.779,525.527 876.5,523C 885.605,512.889 895.605,503.889 906.5,496C 917.995,492.198 925.995,495.865 930.5,507C 924.603,517.101 917.27,526.101 908.5,534C 890.85,547.159 872.85,559.825 854.5,572C 836.381,578.938 820.048,576.105 805.5,563.5C 802.816,558.464 800.983,553.131 800,547.5C 799.586,547.043 799.086,546.709 798.5,546.5C 788.69,553.809 779.024,561.309 769.5,569C 729.146,586.578 705.646,573.744 699,530.5C 681.227,549.815 660.06,564.315 635.5,574C 613.171,580.341 599.837,572.174 595.5,549.5C 583.637,557.862 571.637,566.029 559.5,574C 535.233,580.528 517.9,572.528 507.5,550C 513.739,530.859 519.572,511.693 525,492.5C 514.179,506.144 503.845,520.144 494,534.5C 486.917,547.83 481.084,561.663 476.5,576C 456.388,580.853 440.221,575.02 428,558.5C 426.457,550.162 426.124,541.829 427,533.5C 424.222,536.807 420.722,538.974 416.5,540C 407.141,541.17 397.807,542.503 388.5,544C 365.966,570.401 337.633,580.067 303.5,573C 278.637,559.094 269.803,538.261 277,510.5C 285.52,477.258 304.353,451.758 333.5,434C 346.236,428.241 359.57,425.908 373.5,427C 380.648,433.146 385.815,440.646 389,449.5C 392.195,450.149 395.361,450.982 398.5,452C 416.182,468.223 422.349,488.056 417,511.5C 424.579,506.591 431.579,500.925 438,494.5C 443.322,472.2 450.822,450.7 460.5,430C 467.99,428.244 475.323,428.91 482.5,432C 494.195,438.863 505.195,446.696 515.5,455.5C 523.097,447.398 531.43,440.231 540.5,434C 545.898,430.089 551.898,428.422 558.5,429C 575.41,434.243 586.743,445.243 592.5,462C 584.017,484.107 577.184,506.607 572,529.5C 585.552,518.947 599.386,508.781 613.5,499C 620.754,489.577 627.42,479.744 633.5,469.5C 650.069,453.882 668.403,440.715 688.5,430C 699.845,426.078 711.511,424.578 723.5,425.5C 744.321,362.247 777.654,306.747 823.5,259C 832.255,251.125 842.255,245.625 853.5,242.5 Z M 853.5,286.5 C 854.124,286.917 854.457,287.584 854.5,288.5C 852.119,297.93 848.619,306.93 844,315.5C 836.245,326.669 829.245,338.336 823,350.5C 819.318,355.861 814.818,360.027 809.5,363C 821.511,335.791 836.178,310.291 853.5,286.5 Z M 365.5,470.5 C 366.552,470.351 367.552,470.517 368.5,471C 360.187,485.748 355.354,501.581 354,518.5C 349.256,526.411 342.756,532.411 334.5,536.5C 333.052,528.942 333.885,521.609 337,514.5C 343.495,502.172 350.495,490.172 358,478.5C 360.028,475.308 362.528,472.641 365.5,470.5 Z M 703.5,470.5 C 705.949,478.476 704.782,486.143 700,493.5C 689.142,503.672 677.642,513.005 665.5,521.5C 663.276,520.919 662.443,519.586 663,517.5C 669.662,509.517 675.328,500.85 680,491.5C 687.73,484.264 695.563,477.264 703.5,470.5 Z M 567.5,532.5 C 570.101,533.922 569.934,535.256 567,536.5C 565.941,536.37 565.108,535.87 564.5,535C 565.571,534.148 566.571,533.315 567.5,532.5 Z"/></g>
<g><path style="opacity:0.987" fill="#fefffe" d="M 881.5,344.5 C 900.199,347.014 915.533,355.514 927.5,370C 920.167,384.333 912.833,398.667 905.5,413C 888.64,415.38 874.14,410.547 862,398.5C 861.68,377.953 868.18,359.953 881.5,344.5 Z"/></g>
<g><path style="opacity:1" fill="#05c7c0" d="M 91.5,628.5 C 112.5,628.5 133.5,628.5 154.5,628.5C 154.5,634.167 154.5,639.833 154.5,645.5C 147.167,645.5 139.833,645.5 132.5,645.5C 132.5,664.167 132.5,682.833 132.5,701.5C 126.167,701.5 119.833,701.5 113.5,701.5C 113.5,682.833 113.5,664.167 113.5,645.5C 106.167,645.5 98.8333,645.5 91.5,645.5C 91.5,639.833 91.5,634.167 91.5,628.5 Z"/></g>
<g><path style="opacity:0.999" fill="#05c6bf" d="M 263.5,628.5 C 271.167,628.5 278.833,628.5 286.5,628.5C 286.5,637.833 286.5,647.167 286.5,656.5C 293.167,656.5 299.833,656.5 306.5,656.5C 306.5,647.167 306.5,637.833 306.5,628.5C 313.167,628.5 319.833,628.5 326.5,628.5C 326.5,652.833 326.5,677.167 326.5,701.5C 319.833,701.5 313.167,701.5 306.5,701.5C 306.5,692.167 306.5,682.833 306.5,673.5C 299.833,673.5 293.167,673.5 286.5,673.5C 286.5,682.833 286.5,692.167 286.5,701.5C 278.833,701.5 271.167,701.5 263.5,701.5C 263.5,677.167 263.5,652.833 263.5,628.5 Z"/></g>
<g><path style="opacity:0.999" fill="#05c6bf" d="M 444.5,628.5 C 462.5,628.5 480.5,628.5 498.5,628.5C 498.5,634.167 498.5,639.833 498.5,645.5C 487.167,645.5 475.833,645.5 464.5,645.5C 464.5,649.167 464.5,652.833 464.5,656.5C 473.833,656.5 483.167,656.5 492.5,656.5C 492.5,662.167 492.5,667.833 492.5,673.5C 483.167,673.5 473.833,673.5 464.5,673.5C 464.5,677.167 464.5,680.833 464.5,684.5C 475.833,684.5 487.167,684.5 498.5,684.5C 498.5,690.167 498.5,695.833 498.5,701.5C 480.5,701.5 462.5,701.5 444.5,701.5C 444.5,677.167 444.5,652.833 444.5,628.5 Z"/></g>
<g><path style="opacity:0.999" fill="#05c6bf" d="M 619.5,628.5 C 628.173,628.334 636.84,628.5 645.5,629C 649.403,641.039 653.903,652.873 659,664.5C 662.481,652.379 667.314,640.879 673.5,630C 681.781,628.713 690.114,628.213 698.5,628.5C 698.5,652.833 698.5,677.167 698.5,701.5C 690.833,701.5 683.167,701.5 675.5,701.5C 675.896,679.476 674.229,679.143 670.5,700.5C 662.862,701.497 655.196,701.831 647.5,701.5C 644.569,677.67 642.902,677.67 642.5,701.5C 634.833,701.5 627.167,701.5 619.5,701.5C 619.5,677.167 619.5,652.833 619.5,628.5 Z"/></g>
<g><path style="opacity:0.999" fill="#05c7bf" d="M 797.5,628.5 C 814.5,628.5 831.5,628.5 848.5,628.5C 848.5,634.167 848.5,639.833 848.5,645.5C 838.167,645.5 827.833,645.5 817.5,645.5C 817.5,649.167 817.5,652.833 817.5,656.5C 826.833,656.5 836.167,656.5 845.5,656.5C 845.5,662.167 845.5,667.833 845.5,673.5C 836.167,673.5 826.833,673.5 817.5,673.5C 817.5,677.167 817.5,680.833 817.5,684.5C 827.833,684.5 838.167,684.5 848.5,684.5C 848.5,690.167 848.5,695.833 848.5,701.5C 831.5,701.5 814.5,701.5 797.5,701.5C 797.5,677.167 797.5,652.833 797.5,628.5 Z"/></g>
</svg>
