<svg version="1.2" baseProfile="tiny-ps" xmlns="http://www.w3.org/2000/svg" viewBox="0 0 132 194" width="132" height="194">
	<title>02 Services</title>
	<style>
		tspan { white-space:pre }
		.shp0 { fill: #eff7fa } 
	</style>
	<g id="02 Services">
		<g id="Service 2">
			<path id="Path" class="shp0" d="M131.32 194.01L0.67 194.01C0.67 178.32 4.36 164.91 11.73 153.76C15.16 148.62 20.09 142.92 26.52 136.66C32.95 130.4 40.88 123.46 50.31 115.83C58.71 109.06 65.78 103.1 71.53 97.95C77.27 92.81 81.9 87.99 85.41 83.49C88.93 78.98 91.44 74.55 92.94 70.18C94.44 65.8 95.19 61 95.19 55.77C95.19 47.54 92.87 41.14 88.24 36.55C83.61 31.96 77.01 29.67 68.44 29.67C64.84 29.67 61.41 30.38 58.15 31.79C54.89 33.21 52.02 35.33 49.54 38.16C47.05 40.99 44.97 44.52 43.3 48.77C41.63 53.01 40.62 57.92 40.28 63.49L4.4 63.49C5.17 53.89 7.25 45.19 10.64 37.39C14.02 29.58 18.5 22.94 24.08 17.45C29.65 11.97 36.23 7.72 43.81 4.72C51.4 1.72 59.78 0.22 68.95 0.22C78.81 0.22 87.6 1.66 95.32 4.53C103.03 7.4 109.5 11.35 114.73 16.36C119.96 21.38 123.95 27.29 126.69 34.11C129.43 40.92 130.81 48.32 130.81 56.29C130.81 63.58 129.82 70.33 127.85 76.54C125.87 82.76 122.92 88.65 118.98 94.22C115.29 99.37 109.74 105.52 102.32 112.68C94.91 119.83 85.84 127.91 75.13 136.91C68.78 142.32 63.32 147.1 58.73 151.25C54.14 155.41 50.74 158.78 48.51 161.35L131.32 161.35L131.32 194.01Z" />
		</g>
	</g>
</svg>