<svg version="1.2" baseProfile="tiny-ps" xmlns="http://www.w3.org/2000/svg" viewBox="0 0 131 197" width="131" height="197">
	<title>02 Services</title>
	<style>
		tspan { white-space:pre }
		.shp0 { fill: #eff7fa } 
	</style>
	<g id="02 Services">
		<g id="Service 3">
			<path id="3" class="shp0" d="M121.58 52.43C121.58 59.29 120.12 65.91 117.21 72.3C114.29 78.69 109.83 84.19 103.83 88.82C112.58 93.28 119.24 99.6 123.83 107.79C128.41 115.98 130.71 125.21 130.71 135.5C130.71 144.59 129.04 152.9 125.69 160.45C122.35 167.99 117.74 174.49 111.87 179.93C106 185.37 99.1 189.59 91.17 192.59C83.24 195.59 74.69 197.1 65.51 197.1C56.26 197.1 47.77 195.62 40.05 192.66C32.34 189.7 25.65 185.52 19.99 180.12C14.33 174.72 9.85 168.23 6.55 160.64C3.25 153.05 1.35 144.59 0.83 135.24L36.97 135.24C36.97 139.61 37.59 143.77 38.83 147.72C40.07 151.66 41.92 155.11 44.36 158.07C46.8 161.03 49.78 163.36 53.3 165.08C56.81 166.79 60.88 167.65 65.51 167.65C69.97 167.65 74.02 166.86 77.67 165.27C81.31 163.68 84.42 161.5 86.99 158.71C89.56 155.93 91.53 152.58 92.9 148.68C94.27 144.78 94.96 140.51 94.96 135.89C94.96 126.29 92.17 118.98 86.6 113.96C81.03 108.95 72.8 106.44 61.91 106.44L47.13 106.44L47.13 77.12L58.31 77.12C76.74 77.12 85.96 68.76 85.96 52.04C85.96 44.76 84.05 39.21 80.24 35.39C76.42 31.58 70.96 29.67 63.84 29.67C49.1 29.67 40.7 39.14 38.64 58.09L2.89 58.09C3.92 48.66 6.17 40.34 9.64 33.14C13.11 25.94 17.51 19.9 22.82 15.01C28.14 10.12 34.24 6.44 41.15 3.95C48.04 1.47 55.44 0.22 63.33 0.22C72.16 0.22 80.15 1.51 87.31 4.08C94.47 6.65 100.6 10.25 105.7 14.88C110.8 19.51 114.72 25.02 117.46 31.41C120.21 37.79 121.58 44.8 121.58 52.43Z" />
		</g>
	</g>
</svg>