<svg version="1.2" baseProfile="tiny-ps" xmlns="http://www.w3.org/2000/svg" viewBox="0 0 59 60" width="59" height="60">
	<title>02 Services</title>
	<style>
		tspan { white-space:pre }
		.shp0 { fill: #00c6bf } 
	</style>
	<g id="02 Services">
		<g id="Service 1">
			<path id="Icon" class="shp0" d="M20.65 40.94L18.56 38.85L48.58 8.83L43.61 3.86C43.31 3.56 42.92 3.41 42.52 3.41C42.12 3.41 41.73 3.56 41.43 3.86L9.79 35.51L7.7 33.42L39.34 1.78C40.22 0.9 41.38 0.46 42.52 0.46C43.66 0.46 44.82 0.9 45.69 1.77L57.73 13.81C58.6 14.68 59.04 15.83 59.04 16.98C59.04 18.12 58.6 19.28 57.73 20.15L26.08 51.8L23.99 49.71L55.64 18.07L55.64 18.07C55.94 17.77 56.09 17.38 56.09 16.98C56.09 16.58 55.94 16.19 55.64 15.89L50.67 10.92L20.65 40.94ZM5.85 41.53C5.24 40.93 4.52 40.45 3.56 40.43C2.81 40.41 2.04 40.85 1.64 41.42C1.23 41.99 1.06 42.62 1 43.3L-0.02 55.23L-0.02 55.23C-0.04 55.35 -0.04 55.48 -0.04 55.61C-0.04 56.68 0.37 57.69 1.09 58.41C1.8 59.13 2.81 59.54 3.87 59.54L3.89 59.54C4 59.54 4.12 59.53 4.23 59.52L16.2 58.5C16.88 58.44 17.52 58.27 18.08 57.85C18.65 57.46 19.09 56.69 19.07 55.94C19.05 54.98 18.58 54.26 17.97 53.65L5.85 41.53ZM4.01 56.58C3.98 56.58 3.93 56.59 3.89 56.59C3.23 56.54 2.96 56.27 2.91 55.61C2.91 55.61 2.91 55.57 2.9 55.49L2.92 55.49L3.92 43.77L15.73 55.58L4.01 56.58Z" />
		</g>
	</g>
</svg>