<svg version="1.2" baseProfile="tiny-ps" xmlns="http://www.w3.org/2000/svg" viewBox="0 0 64 58" width="64" height="58">
	<title>02 Services</title>
	<style>
		tspan { white-space:pre }
		.shp0 { fill: #00c6bf } 
	</style>
	<g id="02 Services">
		<g id="Service 3">
			<path id="Icon" class="shp0" d="M64 23L64 47C63.99 49.32 62.3 50.98 59.98 50.99L29.37 50.99C28.61 50.99 27.97 51.63 27.97 52.39L28 58L25 58L25 52C25 49.68 26.68 48 29 48L60 48C60.76 47.99 61 47.76 61 47L61 23C61 22.24 60.76 21 60 21L46 21C45.78 24.76 44.28 28.48 42.58 31.09C40.8 33.84 38.21 35.77 35.18 36L35.18 36.04L34.65 36.04L34.63 36.04C34.62 36.04 35 36 35 36L20 36C19.39 37.57 17.79 38.99 16 39L12 39C9.68 38.99 8.01 37.32 8 35L8 29L2.22 28.91C1.45 28.91 0.81 28.28 0.81 27.51L0.81 27.51C0.81 26.74 1.45 26.11 2.22 26.11L8 26L8 14L2 14C1.23 14 1 13.16 1 12C1 11.9 1.12 11 2 11L8 11L8 4C8.01 1.68 9.68 0 12 0L16 0C18.06 0 19.64 2.04 20 4L34 4C34 4 35 4 35 4L34 4L35 4L35 4C38.02 4.22 40.8 6 42.58 8.74C44.28 11.36 45.78 14.24 46 18L60 18C62.32 18 63.99 20.68 64 23ZM17.75 34.52C17.75 35.28 17.11 35.92 16.35 35.92L12.5 35.92C11.73 35.92 11.1 35.28 11.09 34.52L11.09 4.56C11.1 3.8 12.24 3 13 3L16 3C16.76 3 17.75 3.8 17.75 4.56L17.75 34.52ZM21 33L21 7L28 7L32 7L32 7L32 33L32 33L28 33L21 33ZM40.23 29.56C38.8 31.75 36.83 32.79 35 33L35 7C36.83 7.21 38.8 8.09 40.23 10.27C41.79 12.66 42.81 16.1 42.81 19.92C42.81 23.74 41.79 27.17 40.23 29.56Z" />
		</g>
	</g>
</svg>