<svg version="1.2" baseProfile="tiny-ps" xmlns="http://www.w3.org/2000/svg" viewBox="0 0 71 55" width="71" height="55">
	<title>02 Services</title>
	<style>
		tspan { white-space:pre }
		.shp0 { fill: #00c6bf } 
	</style>
	<g id="02 Services">
		<g id="Service 2">
			<path id="Icon" class="shp0" d="M20 52L52 52L52 55L20 55L20 52ZM66 0L5 0C2.12 0 0 2.11 0 5L0 41C0 43.89 2.12 46.99 5 47L66 47C68.89 46.99 70.99 43.89 71 41L71 5C70.99 2.11 68.89 0.01 66 0ZM68.03 41.23C68.03 42.13 66.89 44 66 44L5 44C4.1 44 2.96 42.13 2.96 41.23L2.96 5.09C2.96 4.19 4.1 3.01 5 3L66 3C66.89 3.01 68.03 4.19 68.03 5.09L68.03 41.23Z" />
		</g>
	</g>
</svg>