<svg version="1.2" baseProfile="tiny-ps" xmlns="http://www.w3.org/2000/svg" viewBox="0 0 78 58" width="78" height="58">
	<title>02 Services</title>
	<style>
		tspan { white-space:pre }
		.shp0 { fill: #ffc400 } 
	</style>
	<g id="02 Services">
		<g id="Title">
			<path id="Composite Path" class="shp0" d="M73.31 50.91C69.91 52.44 65.91 50.93 64.38 47.54C63.88 46.43 63.71 45.27 63.81 44.14L40.42 35.31C39.56 37.07 38.1 38.56 36.17 39.43C32.69 41 28.74 40.1 26.25 37.5L13.38 47.65C13.46 47.8 13.54 47.95 13.61 48.11C15.15 51.51 13.64 55.5 10.24 57.04C6.84 58.57 2.85 57.06 1.31 53.66C-0.22 50.27 1.29 46.27 4.68 44.74C7.29 43.56 10.24 44.18 12.17 46.06L25.03 35.9C24.87 35.63 24.72 35.35 24.59 35.06C22.6 30.65 24.56 25.47 28.96 23.48C29.81 23.1 30.68 22.87 31.55 22.77L31.72 13.84C29.58 13.48 27.66 12.09 26.7 9.97C25.16 6.57 26.68 2.57 30.07 1.04C33.47 -0.5 37.47 1.01 39 4.41C40.54 7.81 39.03 11.8 35.63 13.34C35.01 13.62 34.36 13.8 33.72 13.88L33.55 22.77C36.51 23.11 39.22 24.94 40.54 27.85C41.36 29.67 41.5 31.61 41.08 33.42L64.3 42.19C64.93 40.65 66.12 39.35 67.75 38.61C71.15 37.07 75.15 38.58 76.68 41.98C78.21 45.38 76.71 49.38 73.31 50.91ZM35.34 37.61C31.94 39.14 27.95 37.63 26.41 34.23C24.88 30.84 26.39 26.85 29.79 25.3C33.19 23.78 37.18 25.28 38.72 28.68C40.25 32.08 38.74 36.07 35.34 37.61Z" />
		</g>
	</g>
</svg>